%TF.GenerationSoftware,Altium Limited,Altium Designer,22.1.2 (22)*%
G04 Layer_Physical_Order=1*
G04 Layer_Color=255*
%FSLAX45Y45*%
%MOMM*%
%TF.SameCoordinates,28C188CF-CDDD-481A-9F86-13FD6944754B*%
%TF.FilePolarity,Positive*%
%TF.FileFunction,Copper,L1,Top,Signal*%
%TF.Part,Single*%
G01*
G75*
%TA.AperFunction,SMDPad,CuDef*%
%ADD10R,0.75000X1.00000*%
%ADD11R,0.80000X0.80000*%
%ADD12R,1.00000X1.30000*%
%ADD13R,1.70000X2.40000*%
%ADD14R,1.00000X0.25000*%
%ADD15R,1.00000X1.35000*%
%ADD16R,1.45000X1.55000*%
%TA.AperFunction,Conductor*%
%ADD17C,0.25400*%
%ADD18C,0.50800*%
%ADD19C,0.38100*%
%TA.AperFunction,ComponentPad*%
%ADD20C,1.55000*%
%ADD21R,1.55000X1.55000*%
%TA.AperFunction,ViaPad*%
%ADD22C,0.60960*%
G36*
X1859673Y750281D02*
X1863181Y742987D01*
X1863666Y737581D01*
X1858800Y733588D01*
X1831172Y705960D01*
X1825935Y699578D01*
X1822043Y692297D01*
X1819757Y684760D01*
X1757140D01*
Y625509D01*
X1757084Y625503D01*
X1749184Y623107D01*
X1741904Y619215D01*
X1735522Y613978D01*
X1697422Y575878D01*
X1692185Y569496D01*
X1688293Y562216D01*
X1685897Y554316D01*
X1685087Y546100D01*
Y520700D01*
X1685439Y517132D01*
X1678726Y507152D01*
X1675068Y504432D01*
X1666300D01*
X1662522Y504060D01*
X1621700D01*
Y539100D01*
X1524000D01*
Y393700D01*
Y248300D01*
X1621700D01*
Y283340D01*
X1662522D01*
X1666300Y282968D01*
X1688599D01*
X1703482Y268086D01*
X1698527Y260670D01*
X1694506Y250963D01*
X1692456Y240657D01*
Y230150D01*
X1694506Y219845D01*
X1698527Y210138D01*
X1704364Y201402D01*
X1710107Y195659D01*
X1708828Y188850D01*
X1705417Y182959D01*
X1273597D01*
X1242556Y214000D01*
X1247416Y225733D01*
X1261154D01*
X1269370Y226543D01*
X1277269Y228939D01*
X1284550Y232831D01*
X1290932Y238068D01*
X1291159Y238345D01*
X1296319Y242580D01*
X1337080Y283340D01*
X1400900D01*
Y248300D01*
X1498600D01*
Y393700D01*
Y539100D01*
X1400900D01*
Y506600D01*
X1352887D01*
X1347626Y519300D01*
X1351505Y523179D01*
X1357620Y532331D01*
X1361832Y542501D01*
X1362548Y546100D01*
X1308100D01*
Y558800D01*
X1295400D01*
Y613248D01*
X1291801Y612532D01*
X1281631Y608320D01*
X1272479Y602205D01*
X1267760Y597486D01*
X1255663Y601615D01*
X1255060Y602095D01*
Y661860D01*
X1109340D01*
Y481140D01*
X1204527D01*
X1235008Y450660D01*
Y441471D01*
X1235694Y434500D01*
X1237728Y427797D01*
X1241030Y421619D01*
X1245473Y416204D01*
X1268043Y393635D01*
X1268044Y393634D01*
X1273459Y389190D01*
X1279636Y385888D01*
X1280900Y385505D01*
Y381400D01*
X1356300D01*
Y356000D01*
X1280900D01*
Y330800D01*
X1273740Y321066D01*
X1262500Y309826D01*
X1261154Y309959D01*
X1225660D01*
Y367060D01*
X1038200D01*
Y369600D01*
X953000D01*
Y266700D01*
X940300D01*
Y254000D01*
X842400D01*
Y175493D01*
X827935D01*
X715138Y288290D01*
X707790Y294321D01*
X699406Y298802D01*
X690309Y301562D01*
X680848Y302493D01*
X468888D01*
X464625Y309877D01*
X456617Y320314D01*
X447314Y329617D01*
X436877Y337625D01*
X425483Y344203D01*
X413329Y349238D01*
X400621Y352643D01*
X387578Y354360D01*
X374422D01*
X361379Y352643D01*
X348671Y349238D01*
X336517Y344203D01*
X325123Y337625D01*
X314686Y329617D01*
X305383Y320314D01*
X297375Y309877D01*
X290797Y298483D01*
X285762Y286329D01*
X282357Y273621D01*
X280640Y260578D01*
Y247422D01*
X282357Y234379D01*
X285762Y221671D01*
X290797Y209517D01*
X297375Y198123D01*
X305383Y187686D01*
X314686Y178383D01*
X325123Y170375D01*
X336517Y163797D01*
X348671Y158762D01*
X361379Y155357D01*
X374422Y153640D01*
X387578D01*
X400621Y155357D01*
X413329Y158762D01*
X425483Y163797D01*
X436877Y170375D01*
X447314Y178383D01*
X456617Y187686D01*
X464625Y198123D01*
X468888Y205507D01*
X660762D01*
X773558Y92710D01*
X780907Y86679D01*
X789291Y82198D01*
X798388Y79438D01*
X807848Y78507D01*
X1054100D01*
X1063560Y79438D01*
X1072658Y82198D01*
X1081042Y86679D01*
X1088390Y92710D01*
X1126490Y130810D01*
X1132521Y138158D01*
X1137002Y146542D01*
X1139762Y155640D01*
X1140693Y165100D01*
Y166340D01*
X1171103D01*
X1226375Y111068D01*
X1232757Y105831D01*
X1240038Y101939D01*
X1247938Y99543D01*
X1256154Y98733D01*
X1796240D01*
Y79540D01*
X1916960D01*
Y225260D01*
X1803150D01*
X1799136Y230151D01*
Y240657D01*
X1798759Y242553D01*
X1808713Y254607D01*
X1808820Y254640D01*
X1925960D01*
Y380360D01*
X1938130Y381640D01*
X1942460D01*
Y506500D01*
X1966740D01*
Y381640D01*
X1960240Y380360D01*
Y254640D01*
X1970868D01*
Y225260D01*
X1946240D01*
Y79540D01*
X2066960D01*
Y225260D01*
X2042332D01*
Y254640D01*
X2085960D01*
Y380360D01*
X2092460Y381640D01*
Y507360D01*
X2055400D01*
Y584200D01*
X1980000D01*
Y609600D01*
X2055400D01*
Y661697D01*
X2441046D01*
X2482650Y620093D01*
X2477790Y608360D01*
X2452340D01*
Y407640D01*
X2653060D01*
Y608360D01*
X2594813D01*
Y609600D01*
X2594003Y617816D01*
X2591607Y625716D01*
X2587715Y632996D01*
X2582478Y639378D01*
X2488268Y733588D01*
X2483403Y737581D01*
X2483888Y742988D01*
X2487396Y750281D01*
X2834792Y750281D01*
X2885591Y699482D01*
X2885592Y115282D01*
X2821109Y50799D01*
X40792Y50800D01*
Y750282D01*
X1859673Y750281D01*
D02*
G37*
%LPC*%
G36*
X1077600Y664400D02*
X1014900D01*
Y584200D01*
X1077600D01*
Y664400D01*
D02*
G37*
G36*
X989500D02*
X926800D01*
Y584200D01*
X989500D01*
Y664400D01*
D02*
G37*
G36*
X1320800Y613248D02*
Y571500D01*
X1362548D01*
X1361832Y575099D01*
X1357620Y585269D01*
X1351505Y594421D01*
X1343721Y602205D01*
X1334569Y608320D01*
X1324399Y612532D01*
X1320800Y613248D01*
D02*
G37*
G36*
X483900Y610900D02*
X393700D01*
Y520700D01*
X483900D01*
Y610900D01*
D02*
G37*
G36*
X368300D02*
X278100D01*
Y520700D01*
X368300D01*
Y610900D01*
D02*
G37*
G36*
X1077600Y558800D02*
X1014900D01*
Y478600D01*
X1077600D01*
Y558800D01*
D02*
G37*
G36*
X989500D02*
X926800D01*
Y478600D01*
X989500D01*
Y558800D01*
D02*
G37*
G36*
X483900Y495300D02*
X393700D01*
Y405100D01*
X483900D01*
Y495300D01*
D02*
G37*
G36*
X368300D02*
X278100D01*
Y405100D01*
X368300D01*
Y495300D01*
D02*
G37*
G36*
X927600Y369600D02*
X842400D01*
Y279400D01*
X927600D01*
Y369600D01*
D02*
G37*
G36*
X2565400Y356116D02*
Y266700D01*
X2654816D01*
X2653839Y274118D01*
X2650348Y287147D01*
X2645186Y299609D01*
X2638442Y311291D01*
X2630230Y321992D01*
X2620692Y331530D01*
X2609991Y339742D01*
X2598309Y346486D01*
X2585847Y351648D01*
X2572818Y355139D01*
X2565400Y356116D01*
D02*
G37*
G36*
X2540000D02*
X2532582Y355139D01*
X2519553Y351648D01*
X2507091Y346486D01*
X2495409Y339742D01*
X2484708Y331530D01*
X2475170Y321992D01*
X2466958Y311291D01*
X2460214Y299609D01*
X2455052Y287147D01*
X2451561Y274118D01*
X2450584Y266700D01*
X2540000D01*
Y356116D01*
D02*
G37*
G36*
X2654816Y241300D02*
X2565400D01*
Y151884D01*
X2572818Y152861D01*
X2585847Y156352D01*
X2598309Y161514D01*
X2609991Y168258D01*
X2620692Y176470D01*
X2630230Y186008D01*
X2638442Y196709D01*
X2645186Y208391D01*
X2650348Y220853D01*
X2653839Y233882D01*
X2654816Y241300D01*
D02*
G37*
G36*
X2540000D02*
X2450584D01*
X2451561Y233882D01*
X2455052Y220853D01*
X2460214Y208391D01*
X2466958Y196709D01*
X2475170Y186008D01*
X2484708Y176470D01*
X2495409Y168258D01*
X2507091Y161514D01*
X2519553Y156352D01*
X2532582Y152861D01*
X2540000Y151884D01*
Y241300D01*
D02*
G37*
%LPD*%
D10*
X2006600Y152400D02*
D03*
X1856600D02*
D03*
D11*
X2029600Y444500D02*
D03*
X1879600D02*
D03*
X1863100Y317500D02*
D03*
X2023100D02*
D03*
D12*
X1980000Y596900D02*
D03*
X1830000D02*
D03*
D13*
X1511300Y393700D02*
D03*
D14*
X1666300Y318700D02*
D03*
Y368700D02*
D03*
Y418700D02*
D03*
Y468700D02*
D03*
X1356300Y318700D02*
D03*
Y368700D02*
D03*
Y418700D02*
D03*
Y468700D02*
D03*
D15*
X1182200Y571500D02*
D03*
X1002200D02*
D03*
D16*
X1130300Y266700D02*
D03*
X940300D02*
D03*
D17*
X1460500Y482600D02*
X1562978D01*
X1271053Y267846D02*
X1319000Y315793D01*
Y318500D01*
X1261154Y267846D02*
X1271053D01*
X1308100Y549177D02*
Y558800D01*
X1319000Y468900D02*
Y538278D01*
X1308100Y549177D02*
X1319000Y538278D01*
X1319200Y468700D02*
X1356300D01*
X1319000Y468900D02*
X1319200Y468700D01*
X1270740Y441471D02*
X1293310Y418900D01*
X1270740Y441471D02*
Y465461D01*
X1182200Y554000D02*
X1270740Y465461D01*
X1182200Y554000D02*
Y571500D01*
X1745796Y235404D02*
Y276304D01*
X1666300Y318700D02*
X1703400D01*
X1745796Y276304D01*
X1250116Y368700D02*
X1356300D01*
X1293310Y418900D02*
X1319000D01*
X2006600Y301000D02*
X2023100Y317500D01*
X2006600Y152400D02*
Y301000D01*
X2029600Y324000D02*
Y444500D01*
X2023100Y317500D02*
X2029600Y324000D01*
X1666300Y368700D02*
X1811900D01*
X1863100Y317500D01*
X1853800Y418700D02*
X1879600Y444500D01*
X1666300Y418700D02*
X1853800D01*
X1666300Y468700D02*
X1703400D01*
X1727200Y492500D01*
Y520700D01*
D18*
X1092200Y165100D02*
Y228600D01*
X1130300Y266700D01*
X807848Y127000D02*
X1054100D01*
X1092200Y165100D01*
X381000Y254000D02*
X680848D01*
X807848Y127000D01*
D19*
X1183750Y208250D02*
X1188750D01*
X1256154Y140846D02*
X1847753D01*
X1856600Y149692D01*
X1130300Y261700D02*
Y266700D01*
X1131446Y267846D02*
X1261154D01*
X1130300Y261700D02*
X1183750Y208250D01*
X1188750D02*
X1256154Y140846D01*
X1002200Y554000D02*
Y571500D01*
Y554000D02*
X1143286Y412914D01*
X1206500D01*
X1250116Y368700D02*
Y369298D01*
X1206500Y412914D02*
X1250116Y369298D01*
X2552700Y508000D02*
Y609600D01*
X1860950Y676182D02*
X1888579Y703810D01*
X2458490D02*
X2552700Y609600D01*
X1860950Y627850D02*
Y676182D01*
X1888579Y703810D02*
X2458490D01*
X1830000Y596900D02*
X1860950Y627850D01*
X1765300Y584200D02*
X1817300D01*
X1830000Y596900D01*
X1727200Y520700D02*
Y546100D01*
X1765300Y584200D01*
D20*
X2552700Y254000D02*
D03*
X381000D02*
D03*
D21*
X2552700Y508000D02*
D03*
X381000D02*
D03*
D22*
X1562978Y482600D02*
D03*
X1562100Y393700D02*
D03*
Y304800D02*
D03*
X1460500Y482600D02*
D03*
Y393700D02*
D03*
Y304800D02*
D03*
X1308100Y558800D02*
D03*
X1745796Y235404D02*
D03*
%TF.MD5,12bd19c841230d713a0f7ba0f41b4dd7*%
M02*
