%TF.GenerationSoftware,Altium Limited,Altium Designer,22.1.2 (22)*%
G04 Layer_Color=16711935*
%FSLAX45Y45*%
%MOMM*%
%TF.SameCoordinates,28C188CF-CDDD-481A-9F86-13FD6944754B*%
%TF.FilePolarity,Positive*%
%TF.FileFunction,Other,Top_Assembly*%
%TF.Part,Single*%
G01*
G75*
%TA.AperFunction,NonConductor*%
%ADD27C,0.20000*%
G36*
X2022390Y152399D02*
X2014532D01*
Y202417D01*
X2014439Y202325D01*
X2013977Y201955D01*
X2013422Y201400D01*
X2012498Y200753D01*
X2011481Y199921D01*
X2010186Y198997D01*
X2008707Y197980D01*
X2007043Y196963D01*
X2006950D01*
X2006858Y196870D01*
X2006303Y196500D01*
X2005379Y196038D01*
X2004269Y195483D01*
X2002975Y194836D01*
X2001588Y194189D01*
X2000201Y193542D01*
X1998814Y192987D01*
Y200568D01*
X1998907D01*
X1999092Y200753D01*
X1999461Y200846D01*
X1999924Y201123D01*
X2000478Y201400D01*
X2001126Y201770D01*
X2002697Y202695D01*
X2004546Y203712D01*
X2006396Y205006D01*
X2008337Y206485D01*
X2010279Y208057D01*
X2010371Y208150D01*
X2010464Y208242D01*
X2010741Y208520D01*
X2011111Y208797D01*
X2011943Y209721D01*
X2013052Y210831D01*
X2014162Y212125D01*
X2015364Y213605D01*
X2016381Y215084D01*
X2017305Y216656D01*
X2022390D01*
Y152399D01*
D02*
G37*
G36*
X1962017Y216286D02*
X1962849D01*
X1964790Y216193D01*
X1966824Y215916D01*
X1969043Y215639D01*
X1971077Y215176D01*
X1972094Y214899D01*
X1972926Y214622D01*
X1973019D01*
X1973111Y214529D01*
X1973666Y214252D01*
X1974498Y213882D01*
X1975515Y213235D01*
X1976625Y212403D01*
X1977827Y211293D01*
X1978936Y209999D01*
X1980046Y208520D01*
Y208427D01*
X1980138Y208335D01*
X1980508Y207780D01*
X1980878Y206855D01*
X1981432Y205653D01*
X1981895Y204267D01*
X1982357Y202602D01*
X1982634Y200846D01*
X1982727Y198904D01*
Y198812D01*
Y198627D01*
Y198257D01*
X1982634Y197795D01*
Y197147D01*
X1982542Y196500D01*
X1982172Y194928D01*
X1981617Y193079D01*
X1980878Y191138D01*
X1979768Y189196D01*
X1979029Y188272D01*
X1978289Y187347D01*
X1978196Y187255D01*
X1978104Y187162D01*
X1977827Y186885D01*
X1977457Y186607D01*
X1976995Y186238D01*
X1976440Y185868D01*
X1975700Y185406D01*
X1974960Y184851D01*
X1974036Y184389D01*
X1973019Y183926D01*
X1971909Y183371D01*
X1970708Y182909D01*
X1969321Y182539D01*
X1967934Y182077D01*
X1966362Y181800D01*
X1964698Y181522D01*
X1964883Y181430D01*
X1965253Y181245D01*
X1965807Y180875D01*
X1966547Y180505D01*
X1968211Y179488D01*
X1969043Y178841D01*
X1969783Y178286D01*
X1969968Y178101D01*
X1970430Y177639D01*
X1971170Y176900D01*
X1972094Y175975D01*
X1973111Y174681D01*
X1974313Y173294D01*
X1975515Y171630D01*
X1976810Y169780D01*
X1987812Y152399D01*
X1977272D01*
X1968858Y165712D01*
Y165805D01*
X1968673Y165990D01*
X1968489Y166267D01*
X1968211Y166637D01*
X1967564Y167654D01*
X1966732Y168948D01*
X1965715Y170335D01*
X1964698Y171814D01*
X1963681Y173201D01*
X1962756Y174496D01*
X1962664Y174588D01*
X1962386Y174958D01*
X1961924Y175513D01*
X1961277Y176160D01*
X1959890Y177547D01*
X1959151Y178194D01*
X1958411Y178749D01*
X1958318Y178841D01*
X1958133Y178934D01*
X1957764Y179119D01*
X1957209Y179396D01*
X1956654Y179673D01*
X1956007Y179951D01*
X1954528Y180413D01*
X1954435D01*
X1954250Y180505D01*
X1953881D01*
X1953418Y180598D01*
X1952771Y180690D01*
X1952031D01*
X1951014Y180783D01*
X1940105D01*
Y152399D01*
X1931599D01*
Y216378D01*
X1961277D01*
X1962017Y216286D01*
D02*
G37*
%LPC*%
G36*
X1960260Y209259D02*
X1940105D01*
Y188087D01*
X1959151D01*
X1960260Y188179D01*
X1961554Y188272D01*
X1963034Y188364D01*
X1964513Y188549D01*
X1965992Y188826D01*
X1967287Y189196D01*
X1967472Y189289D01*
X1967841Y189474D01*
X1968396Y189751D01*
X1969136Y190121D01*
X1969968Y190676D01*
X1970800Y191323D01*
X1971632Y192155D01*
X1972279Y193079D01*
X1972372Y193172D01*
X1972557Y193542D01*
X1972834Y194096D01*
X1973204Y194836D01*
X1973481Y195668D01*
X1973759Y196593D01*
X1973943Y197702D01*
X1974036Y198812D01*
Y198904D01*
Y198997D01*
X1973943Y199551D01*
X1973851Y200383D01*
X1973666Y201493D01*
X1973204Y202602D01*
X1972649Y203897D01*
X1971817Y205099D01*
X1970708Y206301D01*
X1970523Y206393D01*
X1970060Y206763D01*
X1969321Y207225D01*
X1968119Y207780D01*
X1966732Y208335D01*
X1964883Y208797D01*
X1962756Y209167D01*
X1960260Y209259D01*
D02*
G37*
%LPD*%
D27*
X1809100Y92400D02*
Y212400D01*
Y92400D02*
X2054100D01*
Y212400D01*
X1809100D02*
X2054100D01*
%TF.MD5,11ca98c0f11aa9cbc9bd4e711f6913f2*%
M02*
