%TF.GenerationSoftware,Altium Limited,Altium Designer,22.1.2 (22)*%
G04 Layer_Color=128*
%FSLAX45Y45*%
%MOMM*%
%TF.SameCoordinates,28C188CF-CDDD-481A-9F86-13FD6944754B*%
%TF.FilePolarity,Positive*%
%TF.FileFunction,Drillmap*%
%TF.Part,Single*%
G01*
G75*
%TA.AperFunction,NonConductor*%
%ADD43C,0.12700*%
D43*
X2501700Y254000D02*
X2603700D01*
X2552700Y203000D02*
Y305000D01*
X2501700Y508000D02*
X2603700D01*
X2552700Y457000D02*
Y559000D01*
X330000Y254000D02*
X432000D01*
X381000Y203000D02*
Y305000D01*
X330000Y508000D02*
X432000D01*
X381000Y457000D02*
Y559000D01*
X1547738Y482600D02*
X1578218D01*
X1562978Y467360D02*
Y497840D01*
X1546860Y393700D02*
X1577340D01*
X1562100Y378460D02*
Y408940D01*
X1546860Y304800D02*
X1577340D01*
X1562100Y289560D02*
Y320040D01*
X1445260Y482600D02*
X1475740D01*
X1460500Y467360D02*
Y497840D01*
X1445260Y393700D02*
X1475740D01*
X1460500Y378460D02*
Y408940D01*
X1445260Y304800D02*
X1475740D01*
X1460500Y289560D02*
Y320040D01*
X1292860Y558800D02*
X1323340D01*
X1308100Y543560D02*
Y574040D01*
X1730556Y235404D02*
X1761036D01*
X1745796Y220164D02*
Y250644D01*
%TF.MD5,1a5a5b008ece8c10c85a011f8444d0aa*%
M02*
