%TF.GenerationSoftware,Altium Limited,Altium Designer,22.1.2 (22)*%
G04 Layer_Color=8421504*
%FSLAX45Y45*%
%MOMM*%
%TF.SameCoordinates,28C188CF-CDDD-481A-9F86-13FD6944754B*%
%TF.FilePolarity,Positive*%
%TF.FileFunction,Paste,Top*%
%TF.Part,Single*%
G01*
G75*
%TA.AperFunction,SMDPad,CuDef*%
%ADD10R,0.75000X1.00000*%
%ADD11R,0.80000X0.80000*%
%ADD12R,1.00000X1.30000*%
%ADD13R,1.70000X2.40000*%
%ADD14R,1.00000X0.25000*%
%ADD15R,1.00000X1.35000*%
%ADD16R,1.45000X1.55000*%
D10*
X2006600Y152400D02*
D03*
X1856600D02*
D03*
D11*
X2029600Y444500D02*
D03*
X1879600D02*
D03*
X1863100Y317500D02*
D03*
X2023100D02*
D03*
D12*
X1980000Y596900D02*
D03*
X1830000D02*
D03*
D13*
X1511300Y393700D02*
D03*
D14*
X1666300Y318700D02*
D03*
Y368700D02*
D03*
Y418700D02*
D03*
Y468700D02*
D03*
X1356300Y318700D02*
D03*
Y368700D02*
D03*
Y418700D02*
D03*
Y468700D02*
D03*
D15*
X1182200Y571500D02*
D03*
X1002200D02*
D03*
D16*
X1130300Y266700D02*
D03*
X940300D02*
D03*
%TF.MD5,ce046025b0b6d6023252afc2e7ad8a76*%
M02*
