%TF.GenerationSoftware,Altium Limited,Altium Designer,22.1.2 (22)*%
G04 Layer_Color=65535*
%FSLAX45Y45*%
%MOMM*%
%TF.SameCoordinates,28C188CF-CDDD-481A-9F86-13FD6944754B*%
%TF.FilePolarity,Positive*%
%TF.FileFunction,Legend,Top*%
%TF.Part,Single*%
G01*
G75*
%TA.AperFunction,NonConductor*%
%ADD25C,0.25000*%
%ADD26C,0.10000*%
%ADD27C,0.20000*%
%ADD28C,0.40000*%
%ADD29R,0.15000X0.80000*%
G36*
X2270942Y722879D02*
X2271505Y722809D01*
X2272209Y722738D01*
X2272983Y722598D01*
X2273757Y722457D01*
X2275586Y721965D01*
X2277415Y721261D01*
X2278330Y720839D01*
X2279245Y720346D01*
X2280089Y719713D01*
X2280863Y719009D01*
X2280933Y718939D01*
X2281074Y718869D01*
X2281215Y718587D01*
X2281496Y718306D01*
X2281848Y717954D01*
X2282200Y717462D01*
X2282551Y716969D01*
X2282974Y716336D01*
X2283677Y714999D01*
X2284381Y713310D01*
X2284662Y712466D01*
X2284803Y711481D01*
X2284944Y710496D01*
X2285014Y709441D01*
Y709300D01*
Y708948D01*
X2284944Y708385D01*
X2284873Y707611D01*
X2284733Y706767D01*
X2284451Y705782D01*
X2284170Y704727D01*
X2283748Y703671D01*
X2283677Y703531D01*
X2283536Y703179D01*
X2283255Y702616D01*
X2282833Y701842D01*
X2282270Y700998D01*
X2281566Y699942D01*
X2280722Y698887D01*
X2279737Y697691D01*
X2279596Y697550D01*
X2279245Y697128D01*
X2278893Y696776D01*
X2278541Y696425D01*
X2278119Y696002D01*
X2277556Y695440D01*
X2276993Y694877D01*
X2276290Y694243D01*
X2275586Y693540D01*
X2274742Y692766D01*
X2273827Y691992D01*
X2272842Y691077D01*
X2271716Y690163D01*
X2270591Y689178D01*
X2270520Y689107D01*
X2270380Y688967D01*
X2270098Y688756D01*
X2269746Y688474D01*
X2269324Y688052D01*
X2268832Y687630D01*
X2267706Y686715D01*
X2266510Y685660D01*
X2265384Y684604D01*
X2264399Y683690D01*
X2263977Y683338D01*
X2263625Y682986D01*
X2263555Y682916D01*
X2263344Y682705D01*
X2263062Y682423D01*
X2262710Y682001D01*
X2262359Y681509D01*
X2261937Y681016D01*
X2261092Y679820D01*
X2285084D01*
Y674051D01*
X2252790D01*
Y674121D01*
Y674403D01*
Y674825D01*
X2252860Y675388D01*
X2252931Y676021D01*
X2253071Y676724D01*
X2253212Y677428D01*
X2253494Y678202D01*
Y678272D01*
X2253564Y678343D01*
X2253705Y678765D01*
X2253986Y679398D01*
X2254408Y680242D01*
X2254971Y681227D01*
X2255675Y682353D01*
X2256449Y683479D01*
X2257434Y684675D01*
Y684745D01*
X2257574Y684815D01*
X2257926Y685238D01*
X2258559Y685871D01*
X2259474Y686786D01*
X2260529Y687841D01*
X2261866Y689107D01*
X2263484Y690514D01*
X2265243Y691992D01*
X2265314Y692062D01*
X2265595Y692273D01*
X2266017Y692625D01*
X2266510Y693047D01*
X2267143Y693610D01*
X2267917Y694243D01*
X2268691Y694947D01*
X2269606Y695721D01*
X2271365Y697410D01*
X2273123Y699098D01*
X2273968Y699942D01*
X2274742Y700787D01*
X2275445Y701561D01*
X2276008Y702335D01*
Y702405D01*
X2276149Y702475D01*
X2276290Y702686D01*
X2276430Y702968D01*
X2276923Y703742D01*
X2277486Y704656D01*
X2277978Y705782D01*
X2278471Y706978D01*
X2278752Y708315D01*
X2278893Y709582D01*
Y709652D01*
Y709722D01*
X2278822Y710144D01*
X2278752Y710848D01*
X2278541Y711622D01*
X2278260Y712607D01*
X2277767Y713592D01*
X2277134Y714577D01*
X2276290Y715562D01*
X2276149Y715703D01*
X2275797Y715984D01*
X2275305Y716336D01*
X2274531Y716828D01*
X2273546Y717251D01*
X2272420Y717673D01*
X2271083Y717954D01*
X2269606Y718024D01*
X2269183D01*
X2268902Y717954D01*
X2268058Y717884D01*
X2267073Y717673D01*
X2266017Y717391D01*
X2264821Y716899D01*
X2263695Y716266D01*
X2262640Y715421D01*
X2262499Y715281D01*
X2262218Y714929D01*
X2261796Y714366D01*
X2261374Y713522D01*
X2260881Y712537D01*
X2260459Y711270D01*
X2260178Y709863D01*
X2260037Y708245D01*
X2253916Y708878D01*
Y708948D01*
X2253986Y709159D01*
Y709511D01*
X2254056Y710004D01*
X2254197Y710567D01*
X2254338Y711200D01*
X2254549Y711974D01*
X2254760Y712748D01*
X2255323Y714436D01*
X2256167Y716125D01*
X2256660Y716969D01*
X2257293Y717813D01*
X2257926Y718587D01*
X2258630Y719291D01*
X2258700Y719361D01*
X2258841Y719432D01*
X2259052Y719643D01*
X2259404Y719854D01*
X2259826Y720135D01*
X2260318Y720417D01*
X2260881Y720768D01*
X2261585Y721120D01*
X2262359Y721472D01*
X2263203Y721824D01*
X2264118Y722105D01*
X2265103Y722387D01*
X2266158Y722598D01*
X2267284Y722809D01*
X2268480Y722879D01*
X2269746Y722950D01*
X2270450D01*
X2270942Y722879D01*
D02*
G37*
G36*
X2231753Y722668D02*
X2232949Y722598D01*
X2234215Y722527D01*
X2235412Y722387D01*
X2236467Y722246D01*
X2236608D01*
X2237100Y722105D01*
X2237733Y721965D01*
X2238578Y721753D01*
X2239492Y721402D01*
X2240477Y720980D01*
X2241533Y720487D01*
X2242447Y719924D01*
X2242588Y719854D01*
X2242870Y719643D01*
X2243292Y719221D01*
X2243855Y718728D01*
X2244488Y718095D01*
X2245121Y717251D01*
X2245825Y716336D01*
X2246387Y715281D01*
X2246458Y715140D01*
X2246599Y714788D01*
X2246880Y714155D01*
X2247161Y713310D01*
X2247372Y712325D01*
X2247654Y711200D01*
X2247795Y709933D01*
X2247865Y708596D01*
Y708526D01*
Y708315D01*
Y708034D01*
X2247795Y707541D01*
X2247724Y707049D01*
X2247654Y706415D01*
X2247513Y705712D01*
X2247372Y704938D01*
X2246880Y703320D01*
X2246599Y702475D01*
X2246176Y701561D01*
X2245684Y700646D01*
X2245191Y699802D01*
X2244558Y698957D01*
X2243855Y698113D01*
X2243784Y698043D01*
X2243643Y697902D01*
X2243432Y697691D01*
X2243081Y697480D01*
X2242658Y697128D01*
X2242096Y696776D01*
X2241392Y696354D01*
X2240618Y696002D01*
X2239703Y695580D01*
X2238648Y695158D01*
X2237522Y694806D01*
X2236186Y694525D01*
X2234778Y694243D01*
X2233230Y694032D01*
X2231472Y693892D01*
X2229642Y693821D01*
X2217189D01*
Y674051D01*
X2210716D01*
Y722738D01*
X2230698D01*
X2231753Y722668D01*
D02*
G37*
G36*
X108916Y674051D02*
X102936D01*
Y712114D01*
X102866Y712044D01*
X102514Y711763D01*
X102092Y711340D01*
X101388Y710848D01*
X100614Y710215D01*
X99629Y709511D01*
X98503Y708737D01*
X97237Y707963D01*
X97167D01*
X97096Y707893D01*
X96674Y707611D01*
X95971Y707260D01*
X95126Y706838D01*
X94141Y706345D01*
X93086Y705853D01*
X92031Y705360D01*
X90975Y704938D01*
Y710707D01*
X91046D01*
X91186Y710848D01*
X91468Y710918D01*
X91819Y711129D01*
X92242Y711340D01*
X92734Y711622D01*
X93930Y712325D01*
X95337Y713099D01*
X96745Y714084D01*
X98222Y715210D01*
X99700Y716406D01*
X99770Y716477D01*
X99840Y716547D01*
X100051Y716758D01*
X100333Y716969D01*
X100966Y717673D01*
X101810Y718517D01*
X102655Y719502D01*
X103569Y720628D01*
X104343Y721753D01*
X105047Y722950D01*
X108916D01*
Y674051D01*
D02*
G37*
G36*
X64521Y722668D02*
X65717Y722598D01*
X66983Y722527D01*
X68179Y722387D01*
X69235Y722246D01*
X69375D01*
X69868Y722105D01*
X70501Y721965D01*
X71345Y721753D01*
X72260Y721402D01*
X73245Y720980D01*
X74300Y720487D01*
X75215Y719924D01*
X75356Y719854D01*
X75637Y719643D01*
X76059Y719221D01*
X76622Y718728D01*
X77255Y718095D01*
X77889Y717251D01*
X78592Y716336D01*
X79155Y715281D01*
X79225Y715140D01*
X79366Y714788D01*
X79648Y714155D01*
X79929Y713310D01*
X80140Y712325D01*
X80421Y711200D01*
X80562Y709933D01*
X80633Y708596D01*
Y708526D01*
Y708315D01*
Y708034D01*
X80562Y707541D01*
X80492Y707049D01*
X80421Y706415D01*
X80281Y705712D01*
X80140Y704938D01*
X79648Y703320D01*
X79366Y702475D01*
X78944Y701561D01*
X78451Y700646D01*
X77959Y699802D01*
X77326Y698957D01*
X76622Y698113D01*
X76552Y698043D01*
X76411Y697902D01*
X76200Y697691D01*
X75848Y697480D01*
X75426Y697128D01*
X74863Y696776D01*
X74160Y696354D01*
X73386Y696002D01*
X72471Y695580D01*
X71416Y695158D01*
X70290Y694806D01*
X68953Y694525D01*
X67546Y694243D01*
X65998Y694032D01*
X64239Y693892D01*
X62410Y693821D01*
X49956D01*
Y674051D01*
X43484D01*
Y722738D01*
X63465D01*
X64521Y722668D01*
D02*
G37*
G36*
X2133849Y180966D02*
X2095785D01*
X2095856Y180895D01*
X2096137Y180543D01*
X2096559Y180121D01*
X2097052Y179418D01*
X2097685Y178644D01*
X2098388Y177659D01*
X2099162Y176533D01*
X2099936Y175267D01*
Y175196D01*
X2100007Y175126D01*
X2100288Y174704D01*
X2100640Y174000D01*
X2101062Y173156D01*
X2101555Y172171D01*
X2102047Y171115D01*
X2102540Y170060D01*
X2102962Y169005D01*
X2097192D01*
Y169075D01*
X2097052Y169216D01*
X2096981Y169497D01*
X2096770Y169849D01*
X2096559Y170271D01*
X2096278Y170764D01*
X2095574Y171960D01*
X2094800Y173367D01*
X2093815Y174774D01*
X2092689Y176252D01*
X2091493Y177729D01*
X2091423Y177799D01*
X2091353Y177870D01*
X2091142Y178081D01*
X2090931Y178362D01*
X2090227Y178996D01*
X2089383Y179840D01*
X2088398Y180684D01*
X2087272Y181599D01*
X2086146Y182373D01*
X2084950Y183076D01*
Y186946D01*
X2133849D01*
Y180966D01*
D02*
G37*
G36*
Y152611D02*
X2123717Y146209D01*
X2123647D01*
X2123506Y146068D01*
X2123295Y145927D01*
X2123014Y145716D01*
X2122240Y145224D01*
X2121255Y144591D01*
X2120199Y143817D01*
X2119074Y143043D01*
X2118018Y142269D01*
X2117033Y141565D01*
X2116963Y141495D01*
X2116682Y141284D01*
X2116259Y140932D01*
X2115767Y140439D01*
X2114712Y139384D01*
X2114219Y138821D01*
X2113797Y138258D01*
X2113727Y138188D01*
X2113656Y138047D01*
X2113515Y137766D01*
X2113304Y137344D01*
X2113093Y136921D01*
X2112882Y136429D01*
X2112530Y135303D01*
Y135233D01*
X2112460Y135092D01*
Y134811D01*
X2112390Y134459D01*
X2112319Y133966D01*
Y133404D01*
X2112249Y132630D01*
Y124327D01*
X2133849D01*
Y117854D01*
X2085161D01*
Y140439D01*
X2085232Y141002D01*
Y141635D01*
X2085302Y143113D01*
X2085513Y144661D01*
X2085724Y146349D01*
X2086076Y147897D01*
X2086287Y148671D01*
X2086498Y149305D01*
Y149375D01*
X2086568Y149445D01*
X2086779Y149867D01*
X2087061Y150501D01*
X2087553Y151275D01*
X2088187Y152119D01*
X2089031Y153033D01*
X2090016Y153878D01*
X2091142Y154722D01*
X2091212D01*
X2091282Y154792D01*
X2091704Y155074D01*
X2092408Y155355D01*
X2093323Y155777D01*
X2094378Y156129D01*
X2095645Y156481D01*
X2096981Y156692D01*
X2098459Y156762D01*
X2098529D01*
X2098670D01*
X2098951D01*
X2099303Y156692D01*
X2099796D01*
X2100288Y156622D01*
X2101484Y156340D01*
X2102891Y155918D01*
X2104369Y155355D01*
X2105846Y154511D01*
X2106550Y153948D01*
X2107254Y153385D01*
X2107324Y153315D01*
X2107394Y153245D01*
X2107605Y153033D01*
X2107816Y152752D01*
X2108098Y152400D01*
X2108379Y151978D01*
X2108731Y151415D01*
X2109153Y150852D01*
X2109505Y150149D01*
X2109857Y149375D01*
X2110279Y148531D01*
X2110631Y147616D01*
X2110912Y146561D01*
X2111264Y145505D01*
X2111475Y144309D01*
X2111686Y143043D01*
X2111757Y143183D01*
X2111897Y143465D01*
X2112179Y143887D01*
X2112460Y144450D01*
X2113234Y145716D01*
X2113727Y146349D01*
X2114149Y146912D01*
X2114289Y147053D01*
X2114641Y147405D01*
X2115204Y147968D01*
X2115908Y148671D01*
X2116893Y149445D01*
X2117948Y150360D01*
X2119214Y151275D01*
X2120622Y152260D01*
X2133849Y160632D01*
Y152611D01*
D02*
G37*
G36*
X2144158Y473109D02*
X2106094D01*
X2106164Y473038D01*
X2106446Y472687D01*
X2106868Y472264D01*
X2107360Y471561D01*
X2107993Y470787D01*
X2108697Y469802D01*
X2109471Y468676D01*
X2110245Y467410D01*
Y467339D01*
X2110315Y467269D01*
X2110597Y466847D01*
X2110949Y466143D01*
X2111371Y465299D01*
X2111863Y464314D01*
X2112356Y463259D01*
X2112848Y462203D01*
X2113270Y461148D01*
X2107501D01*
Y461218D01*
X2107360Y461359D01*
X2107290Y461640D01*
X2107079Y461992D01*
X2106868Y462414D01*
X2106586Y462907D01*
X2105883Y464103D01*
X2105109Y465510D01*
X2104124Y466917D01*
X2102998Y468395D01*
X2101802Y469872D01*
X2101732Y469943D01*
X2101661Y470013D01*
X2101450Y470224D01*
X2101239Y470506D01*
X2100536Y471139D01*
X2099691Y471983D01*
X2098706Y472827D01*
X2097581Y473742D01*
X2096455Y474516D01*
X2095259Y475220D01*
Y479089D01*
X2144158D01*
Y473109D01*
D02*
G37*
G36*
X2121010Y450102D02*
X2121573D01*
X2122909Y450031D01*
X2124457Y449820D01*
X2126076Y449609D01*
X2127764Y449257D01*
X2129453Y448835D01*
X2129523D01*
X2129664Y448765D01*
X2129875Y448695D01*
X2130156Y448624D01*
X2130930Y448343D01*
X2131915Y447921D01*
X2133041Y447498D01*
X2134167Y446936D01*
X2135363Y446232D01*
X2136488Y445528D01*
X2136629Y445458D01*
X2136981Y445177D01*
X2137474Y444755D01*
X2138107Y444192D01*
X2138810Y443558D01*
X2139514Y442784D01*
X2140288Y442011D01*
X2140921Y441096D01*
X2140991Y440955D01*
X2141202Y440674D01*
X2141484Y440181D01*
X2141836Y439478D01*
X2142258Y438633D01*
X2142610Y437648D01*
X2143032Y436523D01*
X2143384Y435256D01*
Y435115D01*
X2143454Y434904D01*
X2143524Y434693D01*
X2143595Y433990D01*
X2143735Y433005D01*
X2143876Y431879D01*
X2144017Y430542D01*
X2144087Y429065D01*
X2144158Y427446D01*
Y409927D01*
X2095470D01*
Y428643D01*
X2095540Y429909D01*
X2095610Y431316D01*
X2095751Y432723D01*
X2095962Y434130D01*
X2096173Y435327D01*
Y435397D01*
X2096244Y435538D01*
Y435749D01*
X2096384Y436030D01*
X2096596Y436804D01*
X2096947Y437789D01*
X2097440Y438915D01*
X2098073Y440111D01*
X2098777Y441307D01*
X2099691Y442433D01*
X2099762Y442503D01*
X2099832Y442573D01*
X2100043Y442784D01*
X2100254Y443066D01*
X2100958Y443769D01*
X2101943Y444614D01*
X2103139Y445528D01*
X2104546Y446513D01*
X2106164Y447428D01*
X2107993Y448202D01*
X2108064D01*
X2108205Y448272D01*
X2108486Y448413D01*
X2108908Y448483D01*
X2109401Y448695D01*
X2109964Y448835D01*
X2110597Y448976D01*
X2111371Y449187D01*
X2112145Y449398D01*
X2113059Y449539D01*
X2115029Y449891D01*
X2117210Y450102D01*
X2119603Y450172D01*
X2119673D01*
X2119814D01*
X2120165D01*
X2120517D01*
X2121010Y450102D01*
D02*
G37*
G36*
X2149149Y324255D02*
X2149079D01*
X2148798D01*
X2148375D01*
X2147813Y324325D01*
X2147179Y324395D01*
X2146476Y324536D01*
X2145772Y324677D01*
X2144998Y324958D01*
X2144928D01*
X2144858Y325029D01*
X2144435Y325169D01*
X2143802Y325451D01*
X2142958Y325873D01*
X2141973Y326436D01*
X2140847Y327139D01*
X2139721Y327913D01*
X2138525Y328898D01*
X2138455D01*
X2138385Y329039D01*
X2137962Y329391D01*
X2137329Y330024D01*
X2136415Y330939D01*
X2135359Y331994D01*
X2134093Y333331D01*
X2132686Y334949D01*
X2131208Y336708D01*
X2131138Y336778D01*
X2130927Y337060D01*
X2130575Y337482D01*
X2130153Y337974D01*
X2129590Y338608D01*
X2128957Y339382D01*
X2128253Y340156D01*
X2127479Y341070D01*
X2125791Y342829D01*
X2124102Y344588D01*
X2123258Y345432D01*
X2122413Y346206D01*
X2121639Y346910D01*
X2120865Y347473D01*
X2120795D01*
X2120725Y347613D01*
X2120514Y347754D01*
X2120232Y347895D01*
X2119458Y348387D01*
X2118544Y348950D01*
X2117418Y349443D01*
X2116222Y349935D01*
X2114885Y350217D01*
X2113619Y350357D01*
X2113548D01*
X2113478D01*
X2113056Y350287D01*
X2112352Y350217D01*
X2111578Y350006D01*
X2110593Y349724D01*
X2109608Y349232D01*
X2108623Y348598D01*
X2107638Y347754D01*
X2107497Y347613D01*
X2107216Y347262D01*
X2106864Y346769D01*
X2106372Y345995D01*
X2105950Y345010D01*
X2105527Y343885D01*
X2105246Y342548D01*
X2105176Y341070D01*
Y340648D01*
X2105246Y340367D01*
X2105316Y339522D01*
X2105527Y338537D01*
X2105809Y337482D01*
X2106301Y336286D01*
X2106935Y335160D01*
X2107779Y334105D01*
X2107920Y333964D01*
X2108271Y333683D01*
X2108834Y333260D01*
X2109679Y332838D01*
X2110664Y332346D01*
X2111930Y331924D01*
X2113337Y331642D01*
X2114955Y331501D01*
X2114322Y325380D01*
X2114252D01*
X2114041Y325451D01*
X2113689D01*
X2113196Y325521D01*
X2112634Y325662D01*
X2112000Y325802D01*
X2111226Y326014D01*
X2110452Y326225D01*
X2108764Y326788D01*
X2107075Y327632D01*
X2106231Y328124D01*
X2105387Y328758D01*
X2104613Y329391D01*
X2103909Y330094D01*
X2103839Y330165D01*
X2103768Y330305D01*
X2103557Y330516D01*
X2103346Y330868D01*
X2103065Y331290D01*
X2102783Y331783D01*
X2102432Y332346D01*
X2102080Y333049D01*
X2101728Y333823D01*
X2101376Y334668D01*
X2101095Y335582D01*
X2100813Y336567D01*
X2100602Y337623D01*
X2100391Y338748D01*
X2100321Y339944D01*
X2100251Y341211D01*
Y341914D01*
X2100321Y342407D01*
X2100391Y342970D01*
X2100462Y343673D01*
X2100602Y344447D01*
X2100743Y345221D01*
X2101236Y347051D01*
X2101939Y348880D01*
X2102361Y349795D01*
X2102854Y350709D01*
X2103487Y351554D01*
X2104191Y352327D01*
X2104261Y352398D01*
X2104331Y352539D01*
X2104613Y352679D01*
X2104894Y352961D01*
X2105246Y353312D01*
X2105738Y353664D01*
X2106231Y354016D01*
X2106864Y354438D01*
X2108201Y355142D01*
X2109890Y355845D01*
X2110734Y356127D01*
X2111719Y356268D01*
X2112704Y356408D01*
X2113759Y356479D01*
X2113900D01*
X2114252D01*
X2114815Y356408D01*
X2115589Y356338D01*
X2116433Y356197D01*
X2117418Y355916D01*
X2118473Y355634D01*
X2119529Y355212D01*
X2119669Y355142D01*
X2120021Y355001D01*
X2120584Y354720D01*
X2121358Y354297D01*
X2122202Y353735D01*
X2123258Y353031D01*
X2124313Y352187D01*
X2125509Y351202D01*
X2125650Y351061D01*
X2126072Y350709D01*
X2126424Y350357D01*
X2126776Y350006D01*
X2127198Y349584D01*
X2127761Y349021D01*
X2128323Y348458D01*
X2128957Y347754D01*
X2129660Y347051D01*
X2130434Y346206D01*
X2131208Y345292D01*
X2132123Y344307D01*
X2133037Y343181D01*
X2134022Y342055D01*
X2134093Y341985D01*
X2134233Y341844D01*
X2134445Y341563D01*
X2134726Y341211D01*
X2135148Y340789D01*
X2135570Y340296D01*
X2136485Y339171D01*
X2137540Y337974D01*
X2138596Y336849D01*
X2139510Y335864D01*
X2139862Y335442D01*
X2140214Y335090D01*
X2140284Y335019D01*
X2140495Y334808D01*
X2140777Y334527D01*
X2141199Y334175D01*
X2141691Y333823D01*
X2142184Y333401D01*
X2143380Y332557D01*
Y356549D01*
X2149149D01*
Y324255D01*
D02*
G37*
G36*
X2126002Y318626D02*
X2126564D01*
X2127901Y318556D01*
X2129449Y318345D01*
X2131067Y318133D01*
X2132756Y317782D01*
X2134445Y317360D01*
X2134515D01*
X2134656Y317289D01*
X2134867Y317219D01*
X2135148Y317148D01*
X2135922Y316867D01*
X2136907Y316445D01*
X2138033Y316023D01*
X2139159Y315460D01*
X2140355Y314756D01*
X2141480Y314053D01*
X2141621Y313982D01*
X2141973Y313701D01*
X2142465Y313279D01*
X2143099Y312716D01*
X2143802Y312083D01*
X2144506Y311309D01*
X2145280Y310535D01*
X2145913Y309620D01*
X2145983Y309479D01*
X2146194Y309198D01*
X2146476Y308706D01*
X2146828Y308002D01*
X2147250Y307158D01*
X2147601Y306173D01*
X2148024Y305047D01*
X2148375Y303780D01*
Y303640D01*
X2148446Y303429D01*
X2148516Y303218D01*
X2148587Y302514D01*
X2148727Y301529D01*
X2148868Y300403D01*
X2149009Y299066D01*
X2149079Y297589D01*
X2149149Y295971D01*
Y278452D01*
X2100462D01*
Y297167D01*
X2100532Y298433D01*
X2100602Y299840D01*
X2100743Y301248D01*
X2100954Y302655D01*
X2101165Y303851D01*
Y303921D01*
X2101236Y304062D01*
Y304273D01*
X2101376Y304554D01*
X2101587Y305328D01*
X2101939Y306313D01*
X2102432Y307439D01*
X2103065Y308635D01*
X2103768Y309831D01*
X2104683Y310957D01*
X2104753Y311027D01*
X2104824Y311098D01*
X2105035Y311309D01*
X2105246Y311590D01*
X2105950Y312294D01*
X2106935Y313138D01*
X2108131Y314053D01*
X2109538Y315038D01*
X2111156Y315952D01*
X2112985Y316726D01*
X2113056D01*
X2113196Y316797D01*
X2113478Y316937D01*
X2113900Y317008D01*
X2114393Y317219D01*
X2114955Y317360D01*
X2115589Y317500D01*
X2116363Y317711D01*
X2117136Y317922D01*
X2118051Y318063D01*
X2120021Y318415D01*
X2122202Y318626D01*
X2124594Y318696D01*
X2124665D01*
X2124806D01*
X2125157D01*
X2125509D01*
X2126002Y318626D01*
D02*
G37*
G36*
X1788734Y736318D02*
X1789368Y736247D01*
X1790141Y736177D01*
X1790915Y736107D01*
X1791830Y735896D01*
X1793730Y735474D01*
X1795840Y734840D01*
X1796896Y734418D01*
X1797881Y733926D01*
X1798866Y733292D01*
X1799851Y732659D01*
X1799921Y732589D01*
X1800062Y732518D01*
X1800343Y732307D01*
X1800695Y731956D01*
X1801047Y731604D01*
X1801539Y731111D01*
X1802032Y730548D01*
X1802595Y729986D01*
X1803158Y729282D01*
X1803721Y728438D01*
X1804354Y727593D01*
X1804917Y726679D01*
X1805409Y725623D01*
X1805972Y724568D01*
X1806394Y723442D01*
X1806816Y722176D01*
X1800484Y720698D01*
Y720769D01*
X1800414Y720909D01*
X1800273Y721191D01*
X1800132Y721543D01*
X1799992Y721965D01*
X1799780Y722528D01*
X1799218Y723653D01*
X1798514Y724920D01*
X1797670Y726186D01*
X1796614Y727382D01*
X1795489Y728438D01*
X1795348Y728578D01*
X1794926Y728860D01*
X1794222Y729212D01*
X1793308Y729704D01*
X1792111Y730126D01*
X1790775Y730548D01*
X1789156Y730830D01*
X1787397Y730900D01*
X1786835D01*
X1786483Y730830D01*
X1785990D01*
X1785427Y730760D01*
X1784091Y730548D01*
X1782613Y730267D01*
X1781065Y729775D01*
X1779447Y729071D01*
X1777970Y728156D01*
X1777899D01*
X1777829Y728016D01*
X1777336Y727664D01*
X1776703Y727101D01*
X1775929Y726257D01*
X1775014Y725201D01*
X1774170Y724005D01*
X1773396Y722528D01*
X1772693Y720909D01*
Y720839D01*
X1772622Y720698D01*
X1772552Y720487D01*
X1772482Y720135D01*
X1772341Y719713D01*
X1772200Y719221D01*
X1771989Y718025D01*
X1771708Y716618D01*
X1771426Y715070D01*
X1771286Y713381D01*
X1771215Y711552D01*
Y711481D01*
Y711270D01*
Y710919D01*
Y710496D01*
X1771286Y710004D01*
Y709371D01*
X1771356Y708667D01*
X1771426Y707893D01*
X1771637Y706205D01*
X1771989Y704375D01*
X1772411Y702546D01*
X1772974Y700717D01*
Y700646D01*
X1773044Y700506D01*
X1773185Y700295D01*
X1773326Y699943D01*
X1773748Y699098D01*
X1774381Y698113D01*
X1775155Y696988D01*
X1776140Y695792D01*
X1777266Y694736D01*
X1778603Y693751D01*
X1778673D01*
X1778814Y693681D01*
X1779025Y693540D01*
X1779306Y693399D01*
X1779658Y693259D01*
X1780080Y693048D01*
X1781065Y692625D01*
X1782332Y692203D01*
X1783739Y691852D01*
X1785287Y691570D01*
X1786905Y691500D01*
X1787397D01*
X1787820Y691570D01*
X1788312D01*
X1788805Y691640D01*
X1790071Y691922D01*
X1791549Y692274D01*
X1793026Y692837D01*
X1794574Y693611D01*
X1795348Y694033D01*
X1796052Y694596D01*
X1796122Y694666D01*
X1796192Y694736D01*
X1796403Y694947D01*
X1796685Y695158D01*
X1796966Y695510D01*
X1797318Y695932D01*
X1797740Y696354D01*
X1798092Y696917D01*
X1798514Y697551D01*
X1799007Y698254D01*
X1799429Y698958D01*
X1799851Y699802D01*
X1800203Y700717D01*
X1800554Y701702D01*
X1800906Y702757D01*
X1801188Y703883D01*
X1807661Y702265D01*
Y702194D01*
X1807590Y701913D01*
X1807450Y701491D01*
X1807238Y700928D01*
X1807027Y700295D01*
X1806746Y699521D01*
X1806394Y698676D01*
X1805972Y697762D01*
X1804987Y695792D01*
X1803721Y693822D01*
X1802947Y692837D01*
X1802173Y691852D01*
X1801328Y691007D01*
X1800343Y690163D01*
X1800273Y690093D01*
X1800132Y689952D01*
X1799780Y689811D01*
X1799429Y689530D01*
X1798866Y689178D01*
X1798303Y688826D01*
X1797529Y688474D01*
X1796755Y688123D01*
X1795840Y687700D01*
X1794855Y687349D01*
X1793800Y686997D01*
X1792674Y686645D01*
X1791478Y686364D01*
X1790212Y686223D01*
X1788875Y686082D01*
X1787468Y686012D01*
X1786694D01*
X1786131Y686082D01*
X1785498D01*
X1784724Y686153D01*
X1783880Y686293D01*
X1782895Y686434D01*
X1780854Y686786D01*
X1778743Y687349D01*
X1776633Y688123D01*
X1775648Y688615D01*
X1774663Y689178D01*
X1774592Y689248D01*
X1774452Y689319D01*
X1774170Y689530D01*
X1773889Y689811D01*
X1773467Y690093D01*
X1772974Y690515D01*
X1772411Y691007D01*
X1771848Y691570D01*
X1771286Y692203D01*
X1770652Y692837D01*
X1769386Y694455D01*
X1768190Y696354D01*
X1767134Y698465D01*
Y698536D01*
X1766994Y698747D01*
X1766923Y699098D01*
X1766712Y699521D01*
X1766572Y700083D01*
X1766360Y700787D01*
X1766079Y701561D01*
X1765868Y702405D01*
X1765657Y703320D01*
X1765375Y704375D01*
X1765024Y706556D01*
X1764742Y709019D01*
X1764601Y711552D01*
Y711622D01*
Y711904D01*
Y712326D01*
X1764672Y712818D01*
Y713522D01*
X1764742Y714225D01*
X1764813Y715140D01*
X1764953Y716055D01*
X1765305Y718095D01*
X1765798Y720347D01*
X1766501Y722598D01*
X1767486Y724779D01*
X1767557Y724849D01*
X1767627Y725061D01*
X1767768Y725342D01*
X1768049Y725694D01*
X1768330Y726186D01*
X1768682Y726749D01*
X1769597Y728016D01*
X1770793Y729423D01*
X1772200Y730830D01*
X1773818Y732237D01*
X1775718Y733433D01*
X1775788Y733503D01*
X1775999Y733574D01*
X1776281Y733715D01*
X1776633Y733926D01*
X1777196Y734137D01*
X1777758Y734348D01*
X1778462Y734629D01*
X1779236Y734911D01*
X1780080Y735192D01*
X1780995Y735474D01*
X1782965Y735896D01*
X1785216Y736247D01*
X1787538Y736388D01*
X1788242D01*
X1788734Y736318D01*
D02*
G37*
G36*
X1830457Y735685D02*
X1831019Y735614D01*
X1831723Y735544D01*
X1832497Y735403D01*
X1833271Y735262D01*
X1835100Y734770D01*
X1836930Y734066D01*
X1837844Y733644D01*
X1838759Y733152D01*
X1839603Y732518D01*
X1840377Y731815D01*
X1840447Y731745D01*
X1840588Y731674D01*
X1840729Y731393D01*
X1841010Y731111D01*
X1841362Y730760D01*
X1841714Y730267D01*
X1842066Y729775D01*
X1842488Y729141D01*
X1843191Y727804D01*
X1843895Y726116D01*
X1844176Y725272D01*
X1844317Y724287D01*
X1844458Y723302D01*
X1844528Y722246D01*
Y722105D01*
Y721754D01*
X1844458Y721191D01*
X1844387Y720417D01*
X1844247Y719573D01*
X1843965Y718588D01*
X1843684Y717532D01*
X1843262Y716477D01*
X1843191Y716336D01*
X1843051Y715984D01*
X1842769Y715421D01*
X1842347Y714648D01*
X1841784Y713803D01*
X1841081Y712748D01*
X1840236Y711693D01*
X1839251Y710496D01*
X1839111Y710356D01*
X1838759Y709934D01*
X1838407Y709582D01*
X1838055Y709230D01*
X1837633Y708808D01*
X1837070Y708245D01*
X1836507Y707682D01*
X1835804Y707049D01*
X1835100Y706345D01*
X1834256Y705571D01*
X1833341Y704797D01*
X1832356Y703883D01*
X1831231Y702968D01*
X1830105Y701983D01*
X1830034Y701913D01*
X1829894Y701772D01*
X1829612Y701561D01*
X1829261Y701280D01*
X1828838Y700857D01*
X1828346Y700435D01*
X1827220Y699521D01*
X1826024Y698465D01*
X1824898Y697410D01*
X1823913Y696495D01*
X1823491Y696143D01*
X1823139Y695792D01*
X1823069Y695721D01*
X1822858Y695510D01*
X1822576Y695229D01*
X1822225Y694807D01*
X1821873Y694314D01*
X1821451Y693822D01*
X1820606Y692625D01*
X1844599D01*
Y686856D01*
X1812304D01*
Y686926D01*
Y687208D01*
Y687630D01*
X1812375Y688193D01*
X1812445Y688826D01*
X1812586Y689530D01*
X1812726Y690233D01*
X1813008Y691007D01*
Y691078D01*
X1813078Y691148D01*
X1813219Y691570D01*
X1813500Y692203D01*
X1813922Y693048D01*
X1814485Y694033D01*
X1815189Y695158D01*
X1815963Y696284D01*
X1816948Y697480D01*
Y697551D01*
X1817089Y697621D01*
X1817440Y698043D01*
X1818074Y698676D01*
X1818988Y699591D01*
X1820044Y700646D01*
X1821380Y701913D01*
X1822999Y703320D01*
X1824758Y704797D01*
X1824828Y704868D01*
X1825109Y705079D01*
X1825532Y705431D01*
X1826024Y705853D01*
X1826657Y706416D01*
X1827431Y707049D01*
X1828205Y707752D01*
X1829120Y708526D01*
X1830879Y710215D01*
X1832638Y711904D01*
X1833482Y712748D01*
X1834256Y713592D01*
X1834959Y714366D01*
X1835522Y715140D01*
Y715210D01*
X1835663Y715281D01*
X1835804Y715492D01*
X1835945Y715773D01*
X1836437Y716547D01*
X1837000Y717462D01*
X1837492Y718588D01*
X1837985Y719784D01*
X1838266Y721120D01*
X1838407Y722387D01*
Y722457D01*
Y722528D01*
X1838337Y722950D01*
X1838266Y723653D01*
X1838055Y724427D01*
X1837774Y725412D01*
X1837281Y726397D01*
X1836648Y727382D01*
X1835804Y728367D01*
X1835663Y728508D01*
X1835311Y728789D01*
X1834819Y729141D01*
X1834045Y729634D01*
X1833060Y730056D01*
X1831934Y730478D01*
X1830597Y730760D01*
X1829120Y730830D01*
X1828698D01*
X1828416Y730760D01*
X1827572Y730689D01*
X1826587Y730478D01*
X1825532Y730197D01*
X1824335Y729704D01*
X1823210Y729071D01*
X1822154Y728227D01*
X1822014Y728086D01*
X1821732Y727734D01*
X1821310Y727171D01*
X1820888Y726327D01*
X1820395Y725342D01*
X1819973Y724076D01*
X1819692Y722668D01*
X1819551Y721050D01*
X1813430Y721683D01*
Y721754D01*
X1813500Y721965D01*
Y722317D01*
X1813571Y722809D01*
X1813711Y723372D01*
X1813852Y724005D01*
X1814063Y724779D01*
X1814274Y725553D01*
X1814837Y727242D01*
X1815681Y728930D01*
X1816174Y729775D01*
X1816807Y730619D01*
X1817440Y731393D01*
X1818144Y732096D01*
X1818214Y732167D01*
X1818355Y732237D01*
X1818566Y732448D01*
X1818918Y732659D01*
X1819340Y732941D01*
X1819833Y733222D01*
X1820395Y733574D01*
X1821099Y733926D01*
X1821873Y734277D01*
X1822717Y734629D01*
X1823632Y734911D01*
X1824617Y735192D01*
X1825672Y735403D01*
X1826798Y735614D01*
X1827994Y735685D01*
X1829261Y735755D01*
X1829964D01*
X1830457Y735685D01*
D02*
G37*
G36*
X1311829Y631517D02*
Y631447D01*
Y631166D01*
Y630814D01*
Y630321D01*
X1311759Y629688D01*
Y628985D01*
X1311688Y628140D01*
X1311618Y627296D01*
X1311407Y625396D01*
X1311125Y623426D01*
X1310703Y621527D01*
X1310422Y620612D01*
X1310140Y619768D01*
Y619697D01*
X1310070Y619557D01*
X1309929Y619345D01*
X1309789Y619064D01*
X1309366Y618290D01*
X1308733Y617305D01*
X1307889Y616179D01*
X1306904Y615054D01*
X1305637Y613858D01*
X1304090Y612802D01*
X1304019D01*
X1303879Y612661D01*
X1303667Y612591D01*
X1303316Y612380D01*
X1302894Y612169D01*
X1302331Y611958D01*
X1301768Y611747D01*
X1301064Y611465D01*
X1300290Y611184D01*
X1299446Y610973D01*
X1298531Y610762D01*
X1297476Y610551D01*
X1296421Y610410D01*
X1295295Y610269D01*
X1292762Y610129D01*
X1292129D01*
X1291636Y610199D01*
X1291073D01*
X1290370Y610269D01*
X1289596Y610340D01*
X1288822Y610410D01*
X1287063Y610691D01*
X1285163Y611114D01*
X1283334Y611676D01*
X1281575Y612450D01*
X1281505D01*
X1281364Y612591D01*
X1281153Y612732D01*
X1280871Y612873D01*
X1280098Y613435D01*
X1279183Y614209D01*
X1278127Y615194D01*
X1277142Y616320D01*
X1276157Y617727D01*
X1275384Y619275D01*
Y619345D01*
X1275313Y619486D01*
X1275243Y619768D01*
X1275102Y620119D01*
X1274961Y620542D01*
X1274821Y621104D01*
X1274610Y621738D01*
X1274469Y622512D01*
X1274328Y623356D01*
X1274117Y624271D01*
X1273976Y625256D01*
X1273836Y626311D01*
X1273695Y627507D01*
X1273625Y628773D01*
X1273554Y630110D01*
Y631517D01*
Y659661D01*
X1280027D01*
Y631517D01*
Y631447D01*
Y631236D01*
Y630884D01*
Y630462D01*
X1280098Y629970D01*
Y629336D01*
X1280168Y628000D01*
X1280309Y626452D01*
X1280520Y624904D01*
X1280801Y623426D01*
X1280942Y622793D01*
X1281153Y622160D01*
X1281223Y622019D01*
X1281364Y621667D01*
X1281716Y621175D01*
X1282138Y620471D01*
X1282630Y619768D01*
X1283334Y618994D01*
X1284178Y618220D01*
X1285163Y617587D01*
X1285304Y617516D01*
X1285656Y617305D01*
X1286289Y617094D01*
X1287133Y616813D01*
X1288118Y616461D01*
X1289385Y616250D01*
X1290722Y616039D01*
X1292199Y615968D01*
X1292903D01*
X1293325Y616039D01*
X1293958D01*
X1294591Y616109D01*
X1296139Y616390D01*
X1297828Y616742D01*
X1299446Y617305D01*
X1300994Y618079D01*
X1301697Y618572D01*
X1302331Y619134D01*
X1302401Y619205D01*
X1302471Y619275D01*
X1302612Y619486D01*
X1302823Y619768D01*
X1303034Y620190D01*
X1303316Y620612D01*
X1303597Y621245D01*
X1303879Y621878D01*
X1304160Y622652D01*
X1304371Y623567D01*
X1304652Y624622D01*
X1304864Y625748D01*
X1305075Y627014D01*
X1305215Y628351D01*
X1305356Y629899D01*
Y631517D01*
Y659661D01*
X1311829D01*
Y631517D01*
D02*
G37*
G36*
X1342646Y610973D02*
X1336665D01*
Y649037D01*
X1336595Y648966D01*
X1336243Y648685D01*
X1335821Y648263D01*
X1335117Y647770D01*
X1334344Y647137D01*
X1333359Y646433D01*
X1332233Y645659D01*
X1330966Y644885D01*
X1330896D01*
X1330826Y644815D01*
X1330403Y644534D01*
X1329700Y644182D01*
X1328856Y643760D01*
X1327871Y643267D01*
X1326815Y642775D01*
X1325760Y642282D01*
X1324704Y641860D01*
Y647629D01*
X1324775D01*
X1324916Y647770D01*
X1325197Y647840D01*
X1325549Y648052D01*
X1325971Y648263D01*
X1326463Y648544D01*
X1327660Y649248D01*
X1329067Y650022D01*
X1330474Y651007D01*
X1331951Y652132D01*
X1333429Y653328D01*
X1333499Y653399D01*
X1333570Y653469D01*
X1333781Y653680D01*
X1334062Y653891D01*
X1334695Y654595D01*
X1335540Y655439D01*
X1336384Y656424D01*
X1337299Y657550D01*
X1338073Y658676D01*
X1338776Y659872D01*
X1342646D01*
Y610973D01*
D02*
G37*
G36*
X913238Y537128D02*
X913168Y536566D01*
Y535932D01*
X913098Y534455D01*
X912887Y532907D01*
X912676Y531218D01*
X912324Y529671D01*
X912113Y528897D01*
X911902Y528263D01*
Y528193D01*
X911831Y528123D01*
X911620Y527700D01*
X911339Y527067D01*
X910846Y526293D01*
X910213Y525449D01*
X909369Y524534D01*
X908384Y523690D01*
X907258Y522846D01*
X907188D01*
X907117Y522775D01*
X906695Y522494D01*
X905992Y522213D01*
X905077Y521790D01*
X904022Y521439D01*
X902755Y521087D01*
X901418Y520876D01*
X899941Y520805D01*
X899870D01*
X899730D01*
X899448D01*
X899096Y520876D01*
X898604D01*
X898111Y520946D01*
X896915Y521228D01*
X895508Y521650D01*
X894031Y522213D01*
X892553Y523057D01*
X891850Y523620D01*
X891146Y524183D01*
X891076Y524253D01*
X891005Y524323D01*
X890794Y524534D01*
X890583Y524816D01*
X890302Y525168D01*
X890020Y525590D01*
X889669Y526153D01*
X889246Y526715D01*
X888895Y527419D01*
X888543Y528193D01*
X888121Y529037D01*
X887769Y529952D01*
X887487Y531007D01*
X887136Y532063D01*
X886925Y533259D01*
X886713Y534525D01*
X886643Y534385D01*
X886502Y534103D01*
X886221Y533681D01*
X885940Y533118D01*
X885166Y531852D01*
X884673Y531218D01*
X884251Y530656D01*
X884110Y530515D01*
X883758Y530163D01*
X883196Y529600D01*
X882492Y528897D01*
X881507Y528123D01*
X880452Y527208D01*
X879185Y526293D01*
X877778Y525308D01*
X864551Y516936D01*
Y524957D01*
X874682Y531359D01*
X874753D01*
X874893Y531500D01*
X875104Y531641D01*
X875386Y531852D01*
X876160Y532344D01*
X877145Y532977D01*
X878200Y533751D01*
X879326Y534525D01*
X880381Y535299D01*
X881366Y536003D01*
X881437Y536073D01*
X881718Y536284D01*
X882140Y536636D01*
X882633Y537128D01*
X883688Y538184D01*
X884181Y538747D01*
X884603Y539310D01*
X884673Y539380D01*
X884743Y539521D01*
X884884Y539802D01*
X885095Y540224D01*
X885306Y540646D01*
X885517Y541139D01*
X885869Y542265D01*
Y542335D01*
X885940Y542476D01*
Y542757D01*
X886010Y543109D01*
X886080Y543601D01*
Y544164D01*
X886151Y544938D01*
Y553240D01*
X864551D01*
Y559713D01*
X913238D01*
Y537128D01*
D02*
G37*
G36*
X865888Y513910D02*
X866521Y513840D01*
X867224Y513699D01*
X867928Y513559D01*
X868702Y513277D01*
X868772D01*
X868843Y513207D01*
X869265Y513066D01*
X869898Y512785D01*
X870742Y512362D01*
X871727Y511800D01*
X872853Y511096D01*
X873979Y510322D01*
X875175Y509337D01*
X875245D01*
X875315Y509196D01*
X875738Y508845D01*
X876371Y508211D01*
X877286Y507297D01*
X878341Y506241D01*
X879607Y504905D01*
X881014Y503286D01*
X882492Y501527D01*
X882562Y501457D01*
X882773Y501176D01*
X883125Y500753D01*
X883547Y500261D01*
X884110Y499628D01*
X884743Y498854D01*
X885447Y498080D01*
X886221Y497165D01*
X887910Y495406D01*
X889598Y493647D01*
X890442Y492803D01*
X891287Y492029D01*
X892061Y491325D01*
X892835Y490763D01*
X892905D01*
X892975Y490622D01*
X893186Y490481D01*
X893468Y490340D01*
X894242Y489848D01*
X895156Y489285D01*
X896282Y488793D01*
X897478Y488300D01*
X898815Y488019D01*
X900082Y487878D01*
X900152D01*
X900222D01*
X900644Y487948D01*
X901348Y488019D01*
X902122Y488230D01*
X903107Y488511D01*
X904092Y489004D01*
X905077Y489637D01*
X906062Y490481D01*
X906203Y490622D01*
X906484Y490974D01*
X906836Y491466D01*
X907328Y492240D01*
X907751Y493225D01*
X908173Y494351D01*
X908454Y495688D01*
X908524Y497165D01*
Y497587D01*
X908454Y497869D01*
X908384Y498713D01*
X908173Y499698D01*
X907891Y500753D01*
X907399Y501949D01*
X906766Y503075D01*
X905921Y504131D01*
X905781Y504271D01*
X905429Y504553D01*
X904866Y504975D01*
X904022Y505397D01*
X903037Y505890D01*
X901770Y506312D01*
X900363Y506593D01*
X898745Y506734D01*
X899378Y512855D01*
X899448D01*
X899659Y512785D01*
X900011D01*
X900504Y512714D01*
X901067Y512574D01*
X901700Y512433D01*
X902474Y512222D01*
X903248Y512011D01*
X904936Y511448D01*
X906625Y510603D01*
X907469Y510111D01*
X908313Y509478D01*
X909087Y508845D01*
X909791Y508141D01*
X909861Y508071D01*
X909932Y507930D01*
X910143Y507719D01*
X910354Y507367D01*
X910635Y506945D01*
X910917Y506452D01*
X911268Y505890D01*
X911620Y505186D01*
X911972Y504412D01*
X912324Y503568D01*
X912605Y502653D01*
X912887Y501668D01*
X913098Y500613D01*
X913309Y499487D01*
X913379Y498291D01*
X913450Y497024D01*
Y496321D01*
X913379Y495828D01*
X913309Y495265D01*
X913238Y494562D01*
X913098Y493788D01*
X912957Y493014D01*
X912465Y491185D01*
X911761Y489355D01*
X911339Y488441D01*
X910846Y487526D01*
X910213Y486682D01*
X909509Y485908D01*
X909439Y485837D01*
X909369Y485697D01*
X909087Y485556D01*
X908806Y485275D01*
X908454Y484923D01*
X907962Y484571D01*
X907469Y484219D01*
X906836Y483797D01*
X905499Y483094D01*
X903810Y482390D01*
X902966Y482109D01*
X901981Y481968D01*
X900996Y481827D01*
X899941Y481757D01*
X899800D01*
X899448D01*
X898885Y481827D01*
X898111Y481897D01*
X897267Y482038D01*
X896282Y482320D01*
X895227Y482601D01*
X894171Y483023D01*
X894031Y483094D01*
X893679Y483234D01*
X893116Y483516D01*
X892342Y483938D01*
X891498Y484501D01*
X890442Y485204D01*
X889387Y486049D01*
X888191Y487034D01*
X888050Y487174D01*
X887628Y487526D01*
X887276Y487878D01*
X886925Y488230D01*
X886502Y488652D01*
X885940Y489215D01*
X885377Y489778D01*
X884743Y490481D01*
X884040Y491185D01*
X883266Y492029D01*
X882492Y492944D01*
X881577Y493929D01*
X880663Y495054D01*
X879678Y496180D01*
X879607Y496250D01*
X879467Y496391D01*
X879256Y496673D01*
X878974Y497024D01*
X878552Y497447D01*
X878130Y497939D01*
X877215Y499065D01*
X876160Y500261D01*
X875104Y501387D01*
X874190Y502372D01*
X873838Y502794D01*
X873486Y503146D01*
X873416Y503216D01*
X873205Y503427D01*
X872923Y503708D01*
X872501Y504060D01*
X872009Y504412D01*
X871516Y504834D01*
X870320Y505678D01*
Y481686D01*
X864551D01*
Y513981D01*
X864621D01*
X864903D01*
X865325D01*
X865888Y513910D01*
D02*
G37*
G36*
X770762Y237866D02*
X771702D01*
X772642Y237772D01*
X773863Y237678D01*
X775085Y237490D01*
X777810Y237020D01*
X780818Y236362D01*
X783825Y235422D01*
X786739Y234106D01*
X786833Y234012D01*
X787115Y233919D01*
X787490Y233731D01*
X787960Y233355D01*
X788618Y232979D01*
X789370Y232509D01*
X791062Y231287D01*
X792941Y229689D01*
X794821Y227810D01*
X796700Y225648D01*
X798298Y223111D01*
X798392Y223017D01*
X798486Y222735D01*
X798674Y222359D01*
X798956Y221889D01*
X799238Y221137D01*
X799520Y220385D01*
X799896Y219446D01*
X800272Y218412D01*
X800648Y217284D01*
X801024Y216062D01*
X801587Y213431D01*
X802057Y210424D01*
X802245Y207322D01*
Y206382D01*
X802151Y205725D01*
X802057Y204879D01*
X801963Y203845D01*
X801869Y202811D01*
X801587Y201589D01*
X801024Y199052D01*
X800178Y196233D01*
X799614Y194823D01*
X798956Y193507D01*
X798110Y192191D01*
X797264Y190876D01*
X797170Y190782D01*
X797076Y190594D01*
X796794Y190218D01*
X796325Y189748D01*
X795855Y189278D01*
X795197Y188620D01*
X794445Y187962D01*
X793693Y187210D01*
X792753Y186459D01*
X791626Y185707D01*
X790498Y184861D01*
X789276Y184109D01*
X787866Y183451D01*
X786457Y182699D01*
X784953Y182136D01*
X783261Y181572D01*
X781288Y190030D01*
X781382D01*
X781570Y190124D01*
X781946Y190312D01*
X782416Y190500D01*
X782979Y190688D01*
X783731Y190970D01*
X785235Y191721D01*
X786927Y192661D01*
X788618Y193789D01*
X790216Y195199D01*
X791626Y196702D01*
X791814Y196890D01*
X792189Y197454D01*
X792659Y198394D01*
X793317Y199616D01*
X793881Y201213D01*
X794445Y202999D01*
X794821Y205161D01*
X794915Y207510D01*
Y208262D01*
X794821Y208732D01*
Y209390D01*
X794727Y210142D01*
X794445Y211927D01*
X794069Y213901D01*
X793411Y215968D01*
X792471Y218130D01*
X791250Y220103D01*
Y220197D01*
X791062Y220291D01*
X790592Y220949D01*
X789840Y221795D01*
X788712Y222829D01*
X787302Y224051D01*
X785705Y225178D01*
X783731Y226212D01*
X781570Y227152D01*
X781476D01*
X781288Y227246D01*
X781006Y227340D01*
X780536Y227434D01*
X779972Y227622D01*
X779314Y227810D01*
X777717Y228092D01*
X775837Y228468D01*
X773769Y228844D01*
X771514Y229032D01*
X769070Y229126D01*
X768976D01*
X768694D01*
X768225D01*
X767661D01*
X767003Y229032D01*
X766157D01*
X765217Y228938D01*
X764183Y228844D01*
X761928Y228562D01*
X759484Y228092D01*
X757041Y227528D01*
X754597Y226776D01*
X754503D01*
X754315Y226682D01*
X754034Y226494D01*
X753564Y226306D01*
X752436Y225742D01*
X751120Y224896D01*
X749616Y223863D01*
X748019Y222547D01*
X746609Y221043D01*
X745293Y219258D01*
Y219164D01*
X745199Y218976D01*
X745011Y218694D01*
X744824Y218318D01*
X744636Y217848D01*
X744354Y217284D01*
X743790Y215968D01*
X743226Y214277D01*
X742756Y212397D01*
X742380Y210330D01*
X742286Y208168D01*
Y207510D01*
X742380Y206946D01*
Y206288D01*
X742474Y205631D01*
X742850Y203939D01*
X743320Y201965D01*
X744072Y199992D01*
X745105Y197924D01*
X745669Y196890D01*
X746421Y195951D01*
X746515Y195857D01*
X746609Y195763D01*
X746891Y195481D01*
X747173Y195105D01*
X747643Y194729D01*
X748207Y194259D01*
X748771Y193695D01*
X749523Y193225D01*
X750368Y192661D01*
X751308Y192003D01*
X752248Y191440D01*
X753376Y190876D01*
X754597Y190406D01*
X755913Y189936D01*
X757323Y189466D01*
X758827Y189090D01*
X756665Y180444D01*
X756571D01*
X756195Y180538D01*
X755631Y180726D01*
X754879Y181008D01*
X754034Y181290D01*
X753000Y181666D01*
X751872Y182136D01*
X750650Y182699D01*
X748019Y184015D01*
X745387Y185707D01*
X744072Y186741D01*
X742756Y187774D01*
X741628Y188902D01*
X740500Y190218D01*
X740406Y190312D01*
X740218Y190500D01*
X740031Y190970D01*
X739655Y191440D01*
X739185Y192191D01*
X738715Y192943D01*
X738245Y193977D01*
X737775Y195011D01*
X737211Y196233D01*
X736741Y197548D01*
X736271Y198958D01*
X735801Y200462D01*
X735426Y202059D01*
X735238Y203751D01*
X735050Y205537D01*
X734956Y207416D01*
Y208450D01*
X735050Y209202D01*
Y210048D01*
X735144Y211081D01*
X735332Y212209D01*
X735519Y213525D01*
X735989Y216250D01*
X736741Y219070D01*
X737775Y221889D01*
X738433Y223205D01*
X739185Y224521D01*
X739279Y224614D01*
X739373Y224802D01*
X739655Y225178D01*
X740031Y225554D01*
X740406Y226118D01*
X740970Y226776D01*
X741628Y227528D01*
X742380Y228280D01*
X743226Y229032D01*
X744072Y229877D01*
X746233Y231569D01*
X748771Y233167D01*
X751590Y234576D01*
X751684D01*
X751966Y234764D01*
X752436Y234858D01*
X753000Y235140D01*
X753752Y235328D01*
X754691Y235610D01*
X755725Y235986D01*
X756853Y236268D01*
X758075Y236550D01*
X759484Y236926D01*
X762398Y237396D01*
X765687Y237772D01*
X769070Y237960D01*
X769164D01*
X769540D01*
X770104D01*
X770762Y237866D01*
D02*
G37*
G36*
X785047Y166911D02*
X785235Y166723D01*
X785329Y166347D01*
X785611Y165877D01*
X785893Y165313D01*
X786269Y164655D01*
X787208Y163058D01*
X788242Y161178D01*
X789558Y159298D01*
X791062Y157325D01*
X792659Y155351D01*
X792753Y155257D01*
X792847Y155163D01*
X793129Y154881D01*
X793411Y154505D01*
X794351Y153660D01*
X795479Y152532D01*
X796794Y151404D01*
X798298Y150182D01*
X799802Y149149D01*
X801399Y148209D01*
Y143040D01*
X736083D01*
Y151028D01*
X786927D01*
X786833Y151122D01*
X786457Y151592D01*
X785893Y152156D01*
X785235Y153096D01*
X784389Y154129D01*
X783449Y155445D01*
X782416Y156949D01*
X781382Y158641D01*
Y158735D01*
X781288Y158828D01*
X780912Y159392D01*
X780442Y160332D01*
X779878Y161460D01*
X779220Y162776D01*
X778562Y164185D01*
X777904Y165595D01*
X777341Y167005D01*
X785047D01*
Y166911D01*
D02*
G37*
%LPC*%
G36*
X2231120Y716969D02*
X2217189D01*
Y699591D01*
X2230275D01*
X2230768Y699661D01*
X2231260D01*
X2231823Y699731D01*
X2233160Y699872D01*
X2234638Y700154D01*
X2236115Y700576D01*
X2237452Y701139D01*
X2238085Y701490D01*
X2238578Y701912D01*
X2238718Y702053D01*
X2239000Y702335D01*
X2239422Y702898D01*
X2239914Y703601D01*
X2240407Y704516D01*
X2240829Y705641D01*
X2241111Y706908D01*
X2241251Y708385D01*
Y708456D01*
Y708526D01*
Y708878D01*
X2241181Y709511D01*
X2241040Y710215D01*
X2240900Y710989D01*
X2240618Y711903D01*
X2240196Y712748D01*
X2239703Y713592D01*
X2239633Y713662D01*
X2239422Y713944D01*
X2239070Y714295D01*
X2238648Y714788D01*
X2238015Y715281D01*
X2237311Y715703D01*
X2236537Y716125D01*
X2235623Y716477D01*
X2235552D01*
X2235271Y716547D01*
X2234849Y716617D01*
X2234286Y716758D01*
X2233442Y716828D01*
X2232386Y716899D01*
X2231120Y716969D01*
D02*
G37*
G36*
X63887D02*
X49956D01*
Y699591D01*
X63043D01*
X63536Y699661D01*
X64028D01*
X64591Y699731D01*
X65928Y699872D01*
X67405Y700154D01*
X68883Y700576D01*
X70220Y701139D01*
X70853Y701490D01*
X71345Y701912D01*
X71486Y702053D01*
X71767Y702335D01*
X72190Y702898D01*
X72682Y703601D01*
X73175Y704516D01*
X73597Y705641D01*
X73878Y706908D01*
X74019Y708385D01*
Y708456D01*
Y708526D01*
Y708878D01*
X73949Y709511D01*
X73808Y710215D01*
X73667Y710989D01*
X73386Y711903D01*
X72964Y712748D01*
X72471Y713592D01*
X72401Y713662D01*
X72190Y713944D01*
X71838Y714295D01*
X71416Y714788D01*
X70782Y715281D01*
X70079Y715703D01*
X69305Y716125D01*
X68390Y716477D01*
X68320D01*
X68038Y716547D01*
X67616Y716617D01*
X67053Y716758D01*
X66209Y716828D01*
X65154Y716899D01*
X63887Y716969D01*
D02*
G37*
G36*
X2098529Y150149D02*
X2098459D01*
X2098388D01*
X2097966Y150078D01*
X2097333Y150008D01*
X2096489Y149867D01*
X2095645Y149516D01*
X2094660Y149093D01*
X2093745Y148460D01*
X2092830Y147616D01*
X2092760Y147475D01*
X2092478Y147123D01*
X2092127Y146561D01*
X2091704Y145646D01*
X2091282Y144591D01*
X2090931Y143183D01*
X2090649Y141565D01*
X2090579Y139665D01*
Y124327D01*
X2106691D01*
Y138821D01*
X2106620Y139665D01*
X2106550Y140650D01*
X2106480Y141776D01*
X2106339Y142902D01*
X2106128Y144028D01*
X2105846Y145013D01*
X2105776Y145153D01*
X2105635Y145435D01*
X2105424Y145857D01*
X2105143Y146420D01*
X2104721Y147053D01*
X2104228Y147686D01*
X2103595Y148319D01*
X2102891Y148812D01*
X2102821Y148882D01*
X2102540Y149023D01*
X2102117Y149234D01*
X2101555Y149516D01*
X2100921Y149727D01*
X2100218Y149938D01*
X2099374Y150078D01*
X2098529Y150149D01*
D02*
G37*
G36*
X2119462Y443558D02*
X2119391D01*
X2119110D01*
X2118758D01*
X2118195Y443488D01*
X2117562D01*
X2116859Y443418D01*
X2116014Y443347D01*
X2115170Y443277D01*
X2113270Y442925D01*
X2111300Y442503D01*
X2109471Y441870D01*
X2108556Y441448D01*
X2107782Y441026D01*
X2107712D01*
X2107571Y440885D01*
X2107360Y440744D01*
X2107079Y440603D01*
X2106375Y440041D01*
X2105531Y439337D01*
X2104616Y438422D01*
X2103702Y437367D01*
X2102928Y436171D01*
X2102294Y434904D01*
X2102224Y434764D01*
X2102154Y434412D01*
X2101943Y433779D01*
X2101732Y432864D01*
X2101591Y431738D01*
X2101380Y430331D01*
X2101309Y429487D01*
Y428572D01*
X2101239Y427658D01*
Y416400D01*
X2138388D01*
Y427939D01*
X2138318Y428431D01*
X2138247Y429487D01*
X2138177Y430683D01*
X2138036Y431949D01*
X2137825Y433216D01*
X2137544Y434271D01*
X2137474Y434412D01*
X2137403Y434764D01*
X2137192Y435256D01*
X2136911Y435889D01*
X2136488Y436593D01*
X2136066Y437297D01*
X2135574Y438000D01*
X2135011Y438704D01*
X2134870Y438774D01*
X2134589Y439056D01*
X2134096Y439478D01*
X2133393Y439970D01*
X2132478Y440533D01*
X2131423Y441166D01*
X2130227Y441729D01*
X2128890Y442222D01*
X2128819D01*
X2128679Y442292D01*
X2128468Y442362D01*
X2128186Y442433D01*
X2127834Y442503D01*
X2127342Y442644D01*
X2126849Y442784D01*
X2126287Y442925D01*
X2124879Y443136D01*
X2123261Y443347D01*
X2121432Y443488D01*
X2119462Y443558D01*
D02*
G37*
G36*
X2124454Y312083D02*
X2124383D01*
X2124102D01*
X2123750D01*
X2123187Y312012D01*
X2122554D01*
X2121850Y311942D01*
X2121006Y311872D01*
X2120162Y311801D01*
X2118262Y311449D01*
X2116292Y311027D01*
X2114463Y310394D01*
X2113548Y309972D01*
X2112774Y309550D01*
X2112704D01*
X2112563Y309409D01*
X2112352Y309268D01*
X2112071Y309128D01*
X2111367Y308565D01*
X2110523Y307861D01*
X2109608Y306947D01*
X2108694Y305891D01*
X2107920Y304695D01*
X2107286Y303429D01*
X2107216Y303288D01*
X2107146Y302936D01*
X2106935Y302303D01*
X2106723Y301388D01*
X2106583Y300263D01*
X2106372Y298855D01*
X2106301Y298011D01*
Y297096D01*
X2106231Y296182D01*
Y284924D01*
X2143380D01*
Y296463D01*
X2143310Y296956D01*
X2143239Y298011D01*
X2143169Y299207D01*
X2143028Y300474D01*
X2142817Y301740D01*
X2142536Y302795D01*
X2142465Y302936D01*
X2142395Y303288D01*
X2142184Y303780D01*
X2141902Y304414D01*
X2141480Y305117D01*
X2141058Y305821D01*
X2140566Y306524D01*
X2140003Y307228D01*
X2139862Y307298D01*
X2139581Y307580D01*
X2139088Y308002D01*
X2138385Y308494D01*
X2137470Y309057D01*
X2136415Y309691D01*
X2135218Y310253D01*
X2133882Y310746D01*
X2133811D01*
X2133671Y310816D01*
X2133460Y310887D01*
X2133178Y310957D01*
X2132826Y311027D01*
X2132334Y311168D01*
X2131841Y311309D01*
X2131278Y311449D01*
X2129871Y311661D01*
X2128253Y311872D01*
X2126424Y312012D01*
X2124454Y312083D01*
D02*
G37*
G36*
X907821Y553240D02*
X891709D01*
Y538747D01*
X891779Y537902D01*
X891850Y536917D01*
X891920Y535792D01*
X892061Y534666D01*
X892272Y533540D01*
X892553Y532555D01*
X892624Y532414D01*
X892764Y532133D01*
X892975Y531711D01*
X893257Y531148D01*
X893679Y530515D01*
X894171Y529882D01*
X894805Y529248D01*
X895508Y528756D01*
X895579Y528686D01*
X895860Y528545D01*
X896282Y528334D01*
X896845Y528052D01*
X897478Y527841D01*
X898182Y527630D01*
X899026Y527489D01*
X899870Y527419D01*
X899941D01*
X900011D01*
X900433Y527489D01*
X901067Y527560D01*
X901911Y527700D01*
X902755Y528052D01*
X903740Y528474D01*
X904655Y529108D01*
X905569Y529952D01*
X905640Y530093D01*
X905921Y530444D01*
X906273Y531007D01*
X906695Y531922D01*
X907117Y532977D01*
X907469Y534385D01*
X907751Y536003D01*
X907821Y537902D01*
Y553240D01*
D02*
G37*
%LPD*%
D25*
X2565200Y687500D02*
G03*
X2565200Y687500I-12500J0D01*
G01*
X393500D02*
G03*
X393500Y687500I-12500J0D01*
G01*
D26*
X1306300Y563700D02*
G03*
X1306300Y563700I-5000J0D01*
G01*
D27*
X2227580Y134500D02*
X2862580D01*
X2227580D02*
Y627500D01*
X2862580D01*
Y134500D02*
Y627500D01*
X55880Y134500D02*
X690880D01*
X55880D02*
Y627500D01*
X690880D01*
Y134500D02*
Y627500D01*
X1851600Y62400D02*
X2011600D01*
X1851600Y242400D02*
X2011600D01*
X1615800Y223700D02*
X1681300D01*
X1341300D02*
X1406800D01*
X1615800Y563700D02*
X1681300D01*
X1341300D02*
X1406800D01*
X1681300Y223700D02*
Y266200D01*
Y521200D02*
Y563700D01*
X1341300Y223700D02*
Y266200D01*
Y521200D02*
Y563700D01*
X1082200Y514000D02*
X1102200D01*
X1082200Y629000D02*
X1102200D01*
D28*
X1789600Y404500D02*
Y484500D01*
D29*
X1795600Y317500D02*
D03*
%TF.MD5,b9c532886e72063aacf11f205e02d4c6*%
M02*
