%TF.GenerationSoftware,Altium Limited,Altium Designer,22.1.2 (22)*%
G04 Layer_Color=8388736*
%FSLAX45Y45*%
%MOMM*%
%TF.SameCoordinates,28C188CF-CDDD-481A-9F86-13FD6944754B*%
%TF.FilePolarity,Negative*%
%TF.FileFunction,Soldermask,Top*%
%TF.Part,Single*%
G01*
G75*
%TA.AperFunction,SMDPad,CuDef*%
%ADD10R,0.75000X1.00000*%
%TA.AperFunction,ComponentPad*%
%ADD23C,1.75320*%
%ADD24R,1.75320X1.75320*%
%TA.AperFunction,SMDPad,CuDef*%
%ADD30R,1.00320X1.00320*%
%ADD31R,1.20320X1.50320*%
%ADD32R,1.90320X2.60320*%
%ADD33R,1.20320X0.45320*%
%ADD34R,1.20320X1.55320*%
%ADD35R,1.65320X1.75320*%
D10*
X2006600Y152400D02*
D03*
X1856600D02*
D03*
D23*
X2552700Y254000D02*
D03*
X381000D02*
D03*
D24*
X2552700Y508000D02*
D03*
X381000D02*
D03*
D30*
X2029600Y444500D02*
D03*
X1879600D02*
D03*
X1863100Y317500D02*
D03*
X2023100D02*
D03*
D31*
X1980000Y596900D02*
D03*
X1830000D02*
D03*
D32*
X1511300Y393700D02*
D03*
D33*
X1666300Y318700D02*
D03*
Y368700D02*
D03*
Y418700D02*
D03*
Y468700D02*
D03*
X1356300Y318700D02*
D03*
Y368700D02*
D03*
Y418700D02*
D03*
Y468700D02*
D03*
D34*
X1182200Y571500D02*
D03*
X1002200D02*
D03*
D35*
X1130300Y266700D02*
D03*
X940300D02*
D03*
%TF.MD5,b84fed2c55bd139b6c51be23633325ed*%
M02*
